<?xml version="1.0" standalone="no"?>
<!DOCTYPE svg PUBLIC "-//W3C//DTD SVG 20010904//EN"
 "http://www.w3.org/TR/2001/REC-SVG-20010904/DTD/svg10.dtd">
<svg version="1.0" xmlns="http://www.w3.org/2000/svg"
 width="600.000000pt" height="600.000000pt" viewBox="0 0 600.000000 600.000000"
 preserveAspectRatio="xMidYMid meet">
<metadata>
Created by potrace 1.14, written by Peter Selinger 2001-2017
</metadata>
<g transform="translate(0.000000,600.000000) scale(0.100000,-0.100000)"
fill="#000000" stroke="none">
<path d="M2925 5939 c-68 -40 -268 -155 -530 -307 -71 -41 -188 -109 -260
-150 -169 -98 -329 -191 -490 -284 -134 -77 -448 -259 -940 -543 l-280 -163 0
-1498 0 -1498 115 -66 c122 -70 611 -353 1045 -603 143 -83 323 -187 400 -232
77 -45 264 -153 415 -240 151 -87 322 -186 380 -220 58 -34 133 -77 167 -95
l61 -34 129 74 c70 40 191 110 268 155 130 76 505 293 795 460 69 40 170 98
225 130 331 191 815 471 965 558 96 55 183 107 193 115 16 14 17 96 15 1505
l-3 1489 -160 93 c-88 50 -306 177 -485 280 -179 103 -365 211 -415 240 -49
28 -252 145 -450 260 -453 262 -605 350 -647 374 -18 10 -120 69 -225 130
-106 61 -199 111 -206 111 -7 0 -44 -18 -82 -41z m199 -373 c156 -90 574 -332
961 -556 55 -32 172 -99 260 -150 164 -94 408 -236 595 -345 58 -33 160 -92
227 -130 l123 -70 -3 -1318 -2 -1319 -285 -165 c-157 -91 -359 -208 -450 -261
-165 -96 -279 -161 -530 -306 -74 -43 -207 -120 -295 -171 -88 -51 -285 -165
-439 -254 l-278 -161 -77 43 c-42 24 -238 137 -436 252 -198 114 -418 242
-490 283 -71 42 -184 107 -250 145 -66 38 -208 120 -315 182 -107 62 -298 172
-425 246 -126 73 -242 140 -257 148 l-28 16 0 1320 0 1320 398 229 c218 126
460 266 537 311 177 103 659 382 705 408 19 10 91 52 160 92 261 152 474 275
478 275 2 0 54 -29 116 -64z"/>
<path d="M2660 5105 c-190 -112 -358 -212 -375 -223 l-30 -19 1 -1873 1 -1872
144 -94 c79 -52 147 -94 152 -94 4 0 7 423 7 940 l0 940 575 0 575 0 0 190 0
190 -575 0 -575 0 2 746 3 746 227 125 226 124 376 -225 c206 -124 379 -226
383 -226 10 0 183 262 183 276 -1 5 -132 86 -292 179 -160 94 -369 216 -465
273 -96 56 -180 102 -186 102 -7 0 -167 -92 -357 -205z"/>
<path d="M1808 4557 l-158 -92 0 -759 c0 -418 -4 -756 -8 -750 -5 5 -20 50
-34 99 -65 227 -273 940 -300 1028 -16 54 -33 97 -37 95 -4 -2 -67 -37 -139
-78 l-132 -75 0 -1096 0 -1097 133 -75 132 -75 5 756 5 756 23 -89 c12 -50 31
-121 41 -160 25 -89 207 -781 320 -1210 l86 -330 60 -36 c33 -20 86 -51 118
-68 l57 -33 0 1691 c0 930 -3 1691 -7 1691 -5 0 -79 -42 -165 -93z"/>
<path d="M4027 4527 c-42 -68 -77 -128 -77 -133 0 -5 89 -66 198 -135 l197
-126 3 -1371 c1 -755 5 -1372 10 -1372 4 0 79 42 167 93 l160 93 3 1177 c1
647 5 1177 8 1177 5 0 115 -74 336 -227 42 -29 79 -53 82 -53 4 0 6 83 6 184
l0 183 -497 314 c-273 173 -501 315 -508 317 -6 1 -46 -53 -88 -121z"/>
</g>
</svg>
